<svg width="1034" height="1034" xmlns="http://www.w3.org/2000/svg"><g fill="none"><g transform="translate(261 135)"><path d="M256.667 124.48C210.275 183.598 127.08 198.837 62.747 160a87.467 87.467 0 0 1-15.467-12.373v-.107a95.008 95.008 0 0 1-24.96-72.853s0-64 105.067-64c105.066 0 129.28 113.813 129.28 113.813zm209.386 23.04v.107A87.467 87.467 0 0 1 450.587 160c-64.334 38.837-147.529 23.598-193.92-35.52 0 0 24.213-113.813 129.28-113.813 105.066 0 105.066 64 105.066 64a95.008 95.008 0 0 1-24.96 72.853z" fill="#F8EDF1"/><path d="M491.013 74.667s0-64-105.066-64c-4.662 0-9.099.298-13.451.725 86.517 7.05 86.517 63.275 86.517 63.275a95.008 95.008 0 0 1-24.96 72.853v.107A87.467 87.467 0 0 1 418.587 160a141.728 141.728 0 0 1-60.224 20.427A147.2 147.2 0 0 0 450.587 160a87.467 87.467 0 0 0 15.466-12.373v-.107a95.008 95.008 0 0 0 24.96-72.853z" fill="#F0DEE4"/><path d="M455.707 211.307A21.536 21.536 0 0 1 436.187 224H77.147a21.536 21.536 0 0 1-19.52-12.693 117.333 117.333 0 0 1-10.347-63.68A87.467 87.467 0 0 0 62.747 160c64.333 38.837 147.528 23.598 193.92-35.52 46.391 59.118 129.586 74.357 193.92 35.52a87.467 87.467 0 0 0 15.466-12.373 117.333 117.333 0 0 1-10.346 63.68z" fill="#F8EDF1"/><path d="M466.053 147.627A87.467 87.467 0 0 1 450.587 160a131.51 131.51 0 0 1-15.84 8.341 127.755 127.755 0 0 1-11.04 42.966A21.536 21.536 0 0 1 404.187 224h32a21.536 21.536 0 0 0 19.52-12.693 117.333 117.333 0 0 0 10.346-63.68zm-262.72 471.04c-32-10.667-42.666-32-85.333-53.334-39.68-19.84-79.36-30.4-84.693-83.306C65.2 485.76 123.333 496 150 522.667a208.693 208.693 0 0 1 53.333 96z" fill="#F0DEE4"/><path d="M502 480s-8.64.427-21.973 2.027C448.133 485.76 390 496 363.333 522.667a208.693 208.693 0 0 0-53.333 96 129.419 129.419 0 0 1-53.333 10.666 129.419 129.419 0 0 1-53.334-10.666 208.693 208.693 0 0 0-53.333-96C123.333 496 65.2 485.76 33.307 482.027 19.973 480.427 11.333 480 11.333 480c0-110.4 40.534-166.72 57.067-185.067A21.248 21.248 0 0 1 84.187 288h344.96a21.248 21.248 0 0 1 15.786 6.933C461.467 313.28 502 369.6 502 480z" fill="#F8EDF1"/><path d="M444.933 294.933A21.248 21.248 0 0 0 429.147 288h-32a21.248 21.248 0 0 1 15.786 6.933C429.467 313.28 470 369.6 470 480c0 0-8.64.427-21.973 2.027C416.133 485.76 358 496 331.333 522.667a208.693 208.693 0 0 0-53.333 96 124.256 124.256 0 0 1-37.333 9.685c5.31.632 10.652.96 16 .981A129.419 129.419 0 0 0 310 618.667a208.693 208.693 0 0 1 53.333-96C390 496 448.133 485.76 480.027 482.027 493.36 480.427 502 480 502 480c0-110.4-40.533-166.72-57.067-185.067z" fill="#F0DEE4"/><path d="M480.027 482.027c-5.334 52.906-45.014 63.466-84.694 83.306C352.667 586.667 342 608 310 618.667a208.693 208.693 0 0 1 53.333-96C390 496 448.133 485.76 480.027 482.027z" fill="#F8EDF1"/><path d="M447.27 487.136c-7.36 48.405-45.6 58.997-83.937 78.197a253.579 253.579 0 0 0-46.272 30.368A168.01 168.01 0 0 0 310 618.667c32-10.667 42.667-32 85.333-53.334 39.68-19.84 79.36-30.4 84.694-83.306-9.195 1.077-20.587 2.72-32.758 5.109z" fill="#F0DEE4"/><path d="M57.627 211.307A21.536 21.536 0 0 0 77.147 224h32a21.536 21.536 0 0 1-19.52-12.693A112.96 112.96 0 0 1 79.28 147.52a95.008 95.008 0 0 1-24.96-72.853s0-56.224 86.517-63.275c-4.352-.427-8.789-.725-13.45-.725-105.067 0-105.067 64-105.067 64a95.008 95.008 0 0 0 24.96 72.853 112.96 112.96 0 0 0 10.347 63.787zm177.706 407.36c-32-10.667-42.666-32-85.333-53.334-39.68-19.84-79.36-30.4-84.693-83.306-13.334-1.6-21.974-2.027-21.974-2.027 0-110.4 40.534-166.72 57.067-185.067A21.248 21.248 0 0 1 116.187 288h-32a21.248 21.248 0 0 0-15.787 6.933C51.867 313.28 11.333 369.6 11.333 480c0 0 8.64.427 21.974 2.027C38.64 534.933 78.32 545.493 118 565.333c42.667 21.334 53.333 42.667 85.333 53.334a137.856 137.856 0 0 0 69.536 9.6 113.067 113.067 0 0 1-37.536-9.6z" fill="#FFF"/><path d="M10.096 392.939l20.779 4.81A371.584 371.584 0 0 0 22 480H.667a392.885 392.885 0 0 1 9.429-87.061z" fill="#FFF"/><path d="M36.123 151.264a131.765 131.765 0 0 0 11.84 64.565 32.395 32.395 0 0 0 29.205 18.838h358.997a32.395 32.395 0 0 0 29.206-18.838 131.733 131.733 0 0 0 11.829-64.554 106.464 106.464 0 0 0 24.395-77.611C500.987 64.683 492.912 0 385.936 0c-76.395 0-113.344 55.925-129.27 92.128C240.742 55.925 203.793 0 127.398 0 20.421 0 12.4 64.683 11.74 73.664a106.464 106.464 0 0 0 24.384 77.6zm400.042 62.07H77.168a10.837 10.837 0 0 1-9.856-6.475 117.333 117.333 0 0 1-9.995-37.654 157.035 157.035 0 0 0 82.614 22.656A155.563 155.563 0 0 0 256.667 140.8a155.563 155.563 0 0 0 116.736 51.072 157.13 157.13 0 0 0 82.613-22.656 117.333 117.333 0 0 1-9.995 37.653 10.837 10.837 0 0 1-9.856 6.464zm-50.229-192c92.203 0 94.325 51.285 94.368 53.333.002.445.03.89.085 1.333a84.683 84.683 0 0 1-21.824 64l-.117.128a74.87 74.87 0 0 1-13.557 10.859c-58.023 34.915-132.8 22.635-176.608-29.003 5.706-20.715 33.184-100.65 117.653-100.65zM32.944 76.02c0-.362.075-.853.085-1.226 0-2.134 2.134-53.462 94.368-53.462 84.459 0 112 79.936 117.654 100.672-43.819 51.622-118.582 63.9-176.608 29.003a75.339 75.339 0 0 1-13.323-10.581c-.181-.192-.341-.406-.533-.587a83.69 83.69 0 0 1-21.643-63.819z" fill="#E9D6DC"/><path d="M13.755 448.064c-5.891.03-10.69-4.722-10.72-10.613-.03-5.891 4.722-10.69 10.613-10.72h.107c5.89 0 10.666 4.775 10.666 10.666s-4.775 10.667-10.666 10.667z" fill="#EBD8DE"/><path d="M429.157 277.333H84.176a31.904 31.904 0 0 0-23.67 10.443 241.44 241.44 0 0 0-50.41 105.141 10.56 10.56 0 0 0 8.128 12.8 10.795 10.795 0 0 0 12.65-8.021 262.57 262.57 0 0 1 19.809-56.363h120.65c5.891 0 10.667-4.775 10.667-10.666S177.224 320 171.333 320H62.864c4.097-6.28 8.62-12.27 13.536-17.93a10.55 10.55 0 0 1 7.776-3.403h344.981a10.517 10.517 0 0 1 7.819 3.392A154.112 154.112 0 0 1 450.64 320H342c-5.891 0-10.667 4.776-10.667 10.667 0 5.89 4.776 10.666 10.667 10.666h120.779a302.933 302.933 0 0 1 28.437 128.747c-27.488 2.421-102.283 11.893-135.467 45.045a220.203 220.203 0 0 0-54.901 95.83 126.304 126.304 0 0 1-44.181 7.712 127.701 127.701 0 0 1-44.224-7.734 220.224 220.224 0 0 0-54.902-95.808c-40.16-40.16-141.397-45.568-145.685-45.792-5.891-.294-10.905 4.243-11.2 10.134-.295 5.89 4.242 10.905 10.133 11.2 3.563.17 8.032.512 13.099 1.002 8.064 44.982 41.195 60.523 73.323 75.563 5.269 2.464 10.666 4.97 16 7.659a239.37 239.37 0 0 1 43.242 28.266 141.205 141.205 0 0 0 42.198 25.11A140.021 140.021 0 0 0 256.667 640a140.021 140.021 0 0 0 58.016-11.733 141.205 141.205 0 0 0 42.176-25.11 239.37 239.37 0 0 1 43.242-28.266c5.334-2.688 10.731-5.195 16-7.659 32.107-15.03 65.227-30.56 73.323-75.499 7.84-.768 12.885-1.066 13.11-1.066A10.667 10.667 0 0 0 512.666 480c0-113.461-41.846-172.213-59.84-192.224a31.904 31.904 0 0 0-23.67-10.443zm-306.389 278.4c-5.525-2.752-11.061-5.333-16.501-7.893-28.555-13.365-51.851-24.267-59.883-53.397 33.344 5.141 76.213 15.861 96.075 35.712a196.917 196.917 0 0 1 43.317 68c-5.333-3.52-10.507-7.467-16.192-11.894a258.293 258.293 0 0 0-46.816-30.474v-.054zm284.299-7.893c-5.44 2.55-10.976 5.141-16.502 7.893a258.293 258.293 0 0 0-46.816 30.528c-5.706 4.448-10.88 8.406-16.245 11.936a196.565 196.565 0 0 1 43.37-68.042c20.907-20.907 64.715-30.934 96.065-35.68-8.032 29.152-31.328 40.064-59.872 53.418v-.053z" fill="#E9D6DC"/><path d="M249.125 348.875a10.368 10.368 0 0 0 7.467 2.986 11.37 11.37 0 0 0 7.403-2.73c.032-.075 9.269-7.798 35.338-7.798 5.891 0 10.667-4.775 10.667-10.666S305.224 320 299.333 320a90.443 90.443 0 0 0-42.666 8.533A90.443 90.443 0 0 0 214 320c-5.891 0-10.667 4.776-10.667 10.667 0 5.89 4.776 10.666 10.667 10.666a59.413 59.413 0 0 1 35.125 7.542z" fill="#EBD8DE"/></g><path d="M241.004 909v-17.568h-49.082v-17.569c8.613-16.406 19.346-33.7 39.58-63.506h29.121v64.532h12.852v16.543h-12.852V909h-19.62zm-30.967-34.043v.547h31.377v-50.518h-.41c-14.356 21.055-22.969 34.522-30.967 49.971zm114.133 36.23c-24.815 0-39.922-19.755-39.922-51.68 0-31.855 15.244-51.405 39.922-51.405 24.677 0 39.853 19.482 39.853 51.337 0 31.856-15.039 51.749-39.853 51.749zm0-16.542c11.757 0 18.867-12.647 18.867-35.137 0-22.285-7.178-34.863-18.867-34.863-11.622 0-18.936 12.646-18.936 34.863 0 22.422 7.178 35.137 18.936 35.137zM424.903 909v-17.568h-49.082v-17.569c8.614-16.406 19.346-33.7 39.58-63.506h29.122v64.532h12.851v16.543h-12.851V909h-19.62zm-30.966-34.043v.547h31.377v-50.518h-.41c-14.356 21.055-22.97 34.522-30.967 49.971zm114.31 61.182c-.684 0-6.905-.069-7.52-.205v-15.381c.615.136 4.238.136 4.99.136 7.315 0 10.938-2.324 12.305-8.134 0-.274.752-3.213.615-3.487l-25.498-73.35h21.943l15.586 57.286h.342l15.586-57.285h21.055l-25.225 74.922c-6.289 18.798-15.45 25.498-34.18 25.498zM624.84 909v-58.242h-27.48V909h-19.893v-73.281h67.265V909H624.84zm101.417-48.262h-18.662c-1.64-6.357-6.426-10.937-14.013-10.937-9.844 0-15.928 8.476-15.928 22.49 0 14.287 6.084 22.627 15.996 22.627 7.451 0 12.373-4.033 14.082-10.938h18.594c-1.778 16.202-14.287 26.592-32.881 26.592-22.012 0-35.889-14.492-35.889-38.281 0-23.379 13.877-38.145 35.752-38.145 18.867 0 31.035 11.211 32.95 26.592zm24.582 49.082a10.955 10.955 0 0 1-11.006-11.006c0-6.152 4.854-11.005 11.006-11.005a10.955 10.955 0 0 1 11.006 11.005 10.999 10.999 0 0 1-11.006 11.006zm37.46 0a10.955 10.955 0 0 1-11.005-11.006c0-6.152 4.854-11.005 11.006-11.005a10.955 10.955 0 0 1 11.006 11.005A10.999 10.999 0 0 1 788.3 909.82zm37.462 0a10.955 10.955 0 0 1-11.006-11.006c0-6.152 4.853-11.005 11.006-11.005a10.955 10.955 0 0 1 11.006 11.005 10.999 10.999 0 0 1-11.006 11.006z" fill="#F0DEE4"/></g></svg>